<?xml version="1.0" encoding="UTF-8"?>
<svg xmlns="http://www.w3.org/2000/svg" width="261.303" height="99.928" viewBox="0 0 261.303 99.928">
  <g transform="translate(-143.8 -26.1)">
    <path d="M243.558,44.827a30.774,30.774,0,0,1,23.994,11.412,61.579,61.579,0,0,1,9.364-17.264,49.651,49.651,0,0,0-66.716,0,61.58,61.58,0,0,1,9.364,17.264,31.238,31.238,0,0,1,23.994-11.412Z" transform="translate(30.748 0)" fill="#5dffbf"></path>
    <path d="M355.213,26.1a49.114,49.114,0,0,0-33.358,12.875,45.236,45.236,0,0,0-7.023,7.9,49.619,49.619,0,0,0-9.364,28.969,31.1,31.1,0,0,1-31.017,31.163A30.774,30.774,0,0,1,250.457,95.6a31.275,31.275,0,0,1-7.023-19.751,49.618,49.618,0,0,0-9.364-28.969,45.233,45.233,0,0,0-7.023-7.9A49.114,49.114,0,0,0,193.691,26.1a49.891,49.891,0,0,0,0,99.781,49.114,49.114,0,0,0,33.358-12.875,61.579,61.579,0,0,1-9.364-17.264,30.876,30.876,0,1,1,7.023-19.459,49.618,49.618,0,0,0,9.364,28.969,45.231,45.231,0,0,0,7.023,7.9,49.651,49.651,0,0,0,66.716,0,45.232,45.232,0,0,0,7.023-7.9A49.619,49.619,0,0,0,324.2,76.283a31.1,31.1,0,1,1,7.023,19.459,61.579,61.579,0,0,1-9.364,17.264,49.113,49.113,0,0,0,33.358,12.875,49.891,49.891,0,1,0,0-99.781Z" transform="translate(0 0)" fill="#5dffbf"></path>
    <circle cx="16.24" cy="16.24" r="16.24" transform="translate(177.158 59.751)" fill="#f8f8f8"></circle>
    <circle cx="16.24" cy="16.24" r="16.24" transform="translate(258.065 59.751)" fill="#f8f8f8"></circle>
    <circle cx="16.24" cy="16.24" r="16.24" transform="translate(338.973 59.751)" fill="#f8f8f8"></circle>
  </g>
</svg>
