<svg width="110" height="42" viewBox="0 0 110 42" fill="none" xmlns="http://www.w3.org/2000/svg">
<g clip-path="url(#clip0_40002498_718)">
<path d="M54.9381 7.871C56.8737 7.86634 58.7857 8.29477 60.5337 9.12482C62.2816 9.95486 63.821 11.1654 65.0388 12.6675C65.9555 10.0538 67.2864 7.60396 68.9808 5.41139C65.1354 1.92896 60.1297 -5.34058e-05 54.9381 -5.34058e-05C49.7466 -5.34058e-05 44.7408 1.92896 40.8955 5.41139C42.5898 7.60396 43.9207 10.0538 44.8374 12.6675C46.0644 11.1759 47.6057 9.97266 49.3516 9.14361C51.0974 8.31456 53.0049 7.88004 54.9381 7.871Z" fill="#5DFFBF"/>
<path d="M88.9977 -3.45332e-06C83.8021 -0.0219261 78.7886 1.91002 74.955 5.41139C73.843 6.39903 72.8507 7.51344 71.9986 8.73178C69.4392 12.2777 68.0603 16.5368 68.0566 20.9075C68.0637 24.3728 66.6922 27.6991 64.2438 30.1552C61.7953 32.6113 58.4703 33.9962 54.9995 34.0054C53.0641 34.0103 51.1522 33.5822 49.4043 32.7526C47.6564 31.9229 46.1168 30.7127 44.8988 29.211C42.9862 26.8658 41.942 23.9339 41.9424 20.9096C41.9388 16.5389 40.5599 12.2798 38.0004 8.73388C37.1483 7.51553 36.156 6.40113 35.044 5.41349C31.2109 1.91156 26.1978 -0.0211412 21.0022 -3.45332e-06C15.4483 0.0248222 10.1304 2.24501 6.21203 6.17479C2.29362 10.1046 0.09375 15.424 0.09375 20.9691C0.09375 26.5142 2.29362 31.8336 6.21203 35.7634C10.1304 39.6932 15.4483 41.9134 21.0022 41.9382C26.1978 41.9601 31.2112 40.0282 35.0448 36.5268C33.3505 34.3342 32.0196 31.8844 31.1029 29.2707C29.1572 31.6341 26.4378 33.2352 23.4248 33.7914C20.4117 34.3476 17.2987 33.8231 14.6353 32.3105C11.9719 30.798 9.92933 28.3945 8.8682 25.5245C7.80707 22.6546 7.7956 19.5025 8.83581 16.6249C9.87602 13.7473 11.901 11.3291 14.5534 9.79725C17.2057 8.26538 20.3148 7.71832 23.3318 8.25264C26.3489 8.78696 29.0798 10.3683 31.0426 12.7175C33.0054 15.0667 34.0739 18.0328 34.0593 21.092C34.0629 25.4628 35.4418 29.7219 38.0013 33.2678C38.8534 34.4861 39.8457 35.6006 40.9577 36.5882C44.803 40.0706 49.8088 41.9996 55.0003 41.9996C60.1919 41.9996 65.1977 40.0706 69.043 36.5882C70.155 35.6005 71.1473 34.4861 71.9994 33.2678C74.5591 29.722 75.9383 25.4629 75.9422 21.092C75.9196 18.0078 76.9902 15.0149 78.9645 12.6426C80.9388 10.2703 83.6898 8.67155 86.7308 8.12897C89.7719 7.58638 92.9072 8.13495 95.5822 9.67767C98.2573 11.2204 100.3 13.6579 101.349 16.5591C102.397 19.4603 102.385 22.6383 101.313 25.5311C100.241 28.4239 98.1796 30.8452 95.4924 32.3667C92.8052 33.8883 89.6657 34.4121 86.629 33.8455C83.5923 33.2789 80.8541 31.6585 78.8987 29.2707C77.9819 31.8844 76.651 34.3342 74.9567 36.5268C78.7903 40.0282 83.8037 41.9602 88.9993 41.9382C91.7653 41.9506 94.5065 41.4173 97.0655 40.3691C99.6245 39.3208 101.951 37.7782 103.911 35.8298C105.871 33.8814 107.427 31.5656 108.488 29.0154C109.549 26.4652 110.096 23.7307 110.096 20.9691C110.096 18.2075 109.549 15.473 108.488 12.9228C107.427 10.3726 105.871 8.05679 103.911 6.1084C101.951 4.16001 99.6245 2.6174 97.0655 1.56914C94.5065 0.520888 91.7653 -0.0123673 88.9993 -3.45332e-06H88.9977Z" fill="#5DFFBF"/>
<path d="M20.8785 27.795C24.6542 27.795 27.715 24.7391 27.715 20.9693C27.715 17.1996 24.6542 14.1436 20.8785 14.1436C17.1028 14.1436 14.042 17.1996 14.042 20.9693C14.042 24.7391 17.1028 27.795 20.8785 27.795Z" fill="#1A1A1A"/>
<path d="M54.9381 27.795C58.7138 27.795 61.7746 24.7391 61.7746 20.9693C61.7746 17.1996 58.7138 14.1436 54.9381 14.1436C51.1624 14.1436 48.1016 17.1996 48.1016 20.9693C48.1016 24.7391 51.1624 27.795 54.9381 27.795Z" fill="#1A1A1A"/>
<path d="M88.9976 27.795C92.7733 27.795 95.8341 24.7391 95.8341 20.9693C95.8341 17.1996 92.7733 14.1436 88.9976 14.1436C85.2219 14.1436 82.1611 17.1996 82.1611 20.9693C82.1611 24.7391 85.2219 27.795 88.9976 27.795Z" fill="#1A1A1A"/>
</g>
<defs>
<clipPath id="clip0_40002498_718">
<rect width="110" height="42" fill="white"/>
</clipPath>
</defs>
</svg>
